# xmcd
#
# Track frame offsets:
# 150
# 8339
# 19844
# 36384
# 49906
# 61117
# 77677
# 90918
# 109196
# 126115
# 142870
# 163728
# 183670
# 199252
# 213704
# 230757
# 247070
# 265800
# 281518
# 296947
# 306292
#
# Disc length: 4239 seconds
#
#
# Revision: 0
# Processed by: cddbd v1.5.2PL0 Copyright (c) Steve Scherf et al.
# Submitted via: FreeRIP 2.53 
#
DISCID=34108d15
DTITLE=Jean-Pierre Bertrand - JP Bertrand and the Real Boogie Woogie
DYEAR=2006
DGENRE=Boogie Woogie
TTITLE0=Train To Holland
TTITLE1=Speed Up Boogie
TTITLE2=Going Faster Now
TTITLE3=Dancing With The Boogie
TTITLE4=Concentration On Boogie Woogie
TTITLE5=Rushing To The Boogie Bar
TTITLE6=Not Repeating Myself
TTITLE7=Montgomery Blues
TTITLE8=Shaking The Keys
TTITLE9=Dribble The Country Side
TTITLE10=Monster Marathon Boogie
TTITLE11=Hymn To Republic
TTITLE12=Imagination In Boogie Woogie
TTITLE13=Jumping The Spicey Piano
TTITLE14=Bar Boogie
TTITLE15=Killer Boogie Woogie
TTITLE16=Boogie Woogie Two Ways
TTITLE17=Maggie
TTITLE18=Not My Dreaming Boogie
TTITLE19=Let's Break The Bars
TTITLE20=Collector's Boogie Woogie
EXTD=Down South Records DSCD9255
EXTT0=
EXTT1=
EXTT2=
EXTT3=
EXTT4=
EXTT5=
EXTT6=
EXTT7=
EXTT8=
EXTT9=
EXTT10=
EXTT11=
EXTT12=
EXTT13=
EXTT14=
EXTT15=
EXTT16=
EXTT17=
EXTT18=
EXTT19=
EXTT20=
PLAYORDER=
